<svg id="Group_28" data-name="Group 28" xmlns="http://www.w3.org/2000/svg" viewBox="0 0 393.278 88.074">
  <defs>
    <style>
      .cls-1 {
        fill: #7159c1;
      }
    </style>
  </defs>
  <path id="Fill_2" data-name="Fill 2" class="cls-1" d="M157.319,218.369H147.78a.135.135,0,0,1-.137-.14l-10.091-17h-4.7v16.863a.137.137,0,0,1-.14.137h-8.291a.135.135,0,0,1-.14-.137h0V176.762a.137.137,0,0,1,.14-.137h16.034c9.536,0,14.789,4.283,14.789,12.163a11.582,11.582,0,0,1-2.626,7.88,14.173,14.173,0,0,1-5.805,4.008l10.643,17.416c.137,0,0,.137-.137.278Zm-24.465-34.557V194.04h7.187c4.423,0,6.495-1.659,6.495-5.253,0-2.212-1.1-4.975-6.495-4.975Z" transform="translate(-21.41 -153.375)"/>
  <path id="Fill_4" data-name="Fill 4" class="cls-1" d="M150.262,211.073c-8.709,0-14.652-6.22-14.652-15.481,0-8.984,6.22-15.341,14.652-15.341,8.706,0,14.652,6.22,14.652,15.341C164.776,204.438,158.693,211.073,150.262,211.073Zm0-23.776c-4.146,0-6.772,3.182-6.772,8.294s2.627,8.432,6.772,8.432,6.772-3.179,6.772-8.432C156.9,190.478,154.407,187.3,150.262,187.3Z" transform="translate(1.819 -145.942)"/>
  <path id="Fill_6" data-name="Fill 6" class="cls-1" d="M160.825,187.3a5.2,5.2,0,0,1,5.668,4.423.135.135,0,0,0,.137.14h7.327a.137.137,0,0,0,.137-.14h0c-.552-7.324-5.39-11.47-13.27-11.47a14.013,14.013,0,0,0-10.781,4.561,16.523,16.523,0,0,0-3.871,11.2c0,9.4,5.531,15.2,14.237,15.2,7.742,0,12.718-4.146,13.547-11.333v-.14h-7.187c-.14,0-.14,0-.14.14-.552,2.9-2.486,4.283-5.805,4.283-5.528,0-6.357-5.113-6.357-8.154-.137-4.423,1.659-8.709,6.357-8.709" transform="translate(23.46 -145.947)"/>
  <path id="Fill_8" data-name="Fill 8" class="cls-1" d="M179.938,211.073c-9.121,0-14.514-5.805-14.514-15.344,0-9.258,5.808-15.478,14.514-15.478,8.569,0,13.822,5.805,13.822,15.064a17.765,17.765,0,0,1-.137,2.767.134.134,0,0,1-.137.137H173.441c.415,4.008,2.626,6.083,6.5,6.083,2.9,0,4.561-.97,5.253-3.182a.134.134,0,0,1,.137-.137h7.465v.137C191.964,206.927,186.573,211.073,179.938,211.073Zm-.137-24.05a5.881,5.881,0,0,0-6.22,4.838h12.162A5.605,5.605,0,0,0,179.8,187.022Z" transform="translate(62.954 -145.942)"/>
  <path id="Fill_10" data-name="Fill 10" class="cls-1" d="M195.61,185.314h-6.772v-7.465a.134.134,0,0,0-.137-.137h-7.465a.134.134,0,0,0-.137.137h0v7.465h-5.116a.137.137,0,0,0-.137.14v6.772a.134.134,0,0,0,.137.137H181.1v15.759c0,6.632,3.731,8.017,9.536,8.017h5.116a.137.137,0,0,0,.137-.14h0v-6.635a.134.134,0,0,0-.137-.137H191.88c-2.212,0-2.9-.552-2.9-2.764V192.5h6.775a.134.134,0,0,0,.137-.137h0v-6.772a.3.3,0,0,0-.278-.278h0" transform="translate(84.324 -151.146)"/>
  <path id="Fill_12" data-name="Fill 12" class="cls-1" d="M201.474,193.3h0l-6.357-2.071c-2.352-.83-2.767-1.382-2.767-2.349s.415-2.212,3.871-2.212c2.764,0,4.423,1.1,4.423,3.038a.135.135,0,0,0,.137.14h7.327a.137.137,0,0,0,.137-.14h0a8.535,8.535,0,0,0-3.731-7.462,14.566,14.566,0,0,0-8.295-2.074c-5.805,0-12.025,2.489-12.162,9.261,0,5.253,3.868,7.187,7.739,8.291l4.838,1.522c3.456,1.1,4.423,1.519,4.423,2.9,0,1.522-.83,2.489-4.838,2.489-3.179,0-4.838-1.245-5.113-3.594a.137.137,0,0,0-.14-.137h-7.324a.135.135,0,0,0-.14.137c0,8.294,6.912,10.091,12.855,10.091a17.271,17.271,0,0,0,8.709-2.074,8.179,8.179,0,0,0,4.008-7.465c0-4.838-3.041-6.772-7.6-8.294" transform="translate(100.025 -146.14)"/>
  <path id="Fill_14" data-name="Fill 14" class="cls-1" d="M207.306,211.073c-9.124,0-14.514-5.805-14.514-15.344,0-9.258,5.805-15.478,14.514-15.478,8.569,0,13.822,5.805,13.822,15.064a17.763,17.763,0,0,1-.137,2.767.137.137,0,0,1-.14.137H200.809c.415,4.008,2.627,6.083,6.5,6.083,2.9,0,4.561-.97,5.253-3.182a.134.134,0,0,1,.137-.137h7.465v.137C219.194,206.927,213.941,211.073,207.306,211.073Zm-.278-24.05a5.881,5.881,0,0,0-6.22,4.838h12.166A5.439,5.439,0,0,0,207.029,187.022Z" transform="translate(119.073 -145.942)"/>
  <path id="Fill_16" data-name="Fill 16" class="cls-1" d="M231.6,211.259h-5.668a4.045,4.045,0,0,1-3.868-4.286v-.137c-1.937,2.764-5.116,4.146-9.261,4.146-5.805,0-9.676-3.456-9.676-8.706q0-7.674,10.366-9.539l4.978-.967c2.349-.415,2.9-.83,2.9-2.212,0-1.8-1.66-2.764-4.7-2.764-3.182,0-4.838.967-4.838,2.9a.137.137,0,0,1-.14.14h-7.324a.137.137,0,0,1-.137-.14c0-5.805,4.975-9.536,12.715-9.536,8.432,0,12.44,3.594,12.44,11.2v11.888c0,1.1.552,1.659,1.522,1.659h.689a.134.134,0,0,1,.137.137h0v5.942c.14.14,0,.278-.137.278Zm-10.091-14.237a3.168,3.168,0,0,1-1.519.415l-4.286.83c-3.041.689-4.283,1.656-4.283,3.453,0,2.489,1.934,3.041,3.594,3.041a6.638,6.638,0,0,0,6.635-6.635v-1.1Z" transform="translate(140.257 -146.128)"/>
  <path id="Fill_18" data-name="Fill 18" class="cls-1" d="M232.677,192.409a.134.134,0,0,0,.137-.137h0V185.5a.134.134,0,0,0-.137-.137H225.9V177.9a.135.135,0,0,0-.137-.14H218.3a.136.136,0,0,0-.137.14h0v7.465h-5.116a.134.134,0,0,0-.137.137h0v6.772a.134.134,0,0,0,.137.137h5.116v15.759c0,6.635,3.731,8.017,9.536,8.017h5.116a.134.134,0,0,0,.137-.137h0v-6.635a.135.135,0,0,0-.137-.14h-3.871c-2.212,0-2.9-.552-2.9-2.764v-14.1Z" transform="translate(160.326 -151.054)"/>
  <path id="Fill_20" data-name="Fill 20" class="cls-1" d="M172.672,192.275l11.885-11.751s.14-.137,0-.137a.134.134,0,0,0-.137-.137h-9.536l-10.506,10.228V180.387a.134.134,0,0,0-.137-.137h-7.6a.135.135,0,0,0-.14.137v30.408a.137.137,0,0,0,.14.14H164.1a.137.137,0,0,0,.14-.14h0V200.429l2.627-2.627,8.843,13.133.14.137h9.4a.134.134,0,0,0,.137-.137v-.14Z" transform="translate(44.651 -145.942)"/>
  <g id="Group_2" data-name="Group 2" transform="translate(0 0)">
    <path id="Path_19" data-name="Path 19" class="cls-1" d="M117.646,197.423c-2.212-1.382-11.47-7.05-11.47-7.05s-9.261-5.668-11.473-7.05a.265.265,0,0,0-.415.14v.137a6.247,6.247,0,0,1-.137,1.66.834.834,0,0,0,.137.552l2.626,4.286a1.916,1.916,0,0,1,.275,1.519l-1.8,7.187c-.137.278,0,.552.278.83a20.9,20.9,0,0,0,3.594,2.489,20.815,20.815,0,0,0,3.871,2.071.648.648,0,0,0,.83-.137l5.528-4.975a1.67,1.67,0,0,1,1.382-.415l4.975.415a.842.842,0,0,0,.555-.137l1.519-.83C117.787,197.838,117.924,197.56,117.646,197.423Z" transform="translate(-83.194 -139.757)"/>
    <path id="Path_20" data-name="Path 20" class="cls-1" d="M109.392,194.486a1.988,1.988,0,0,0-.967-1.382,13.432,13.432,0,0,1-2.9-1.659,28.029,28.029,0,0,1-2.767-1.937,1.755,1.755,0,0,0-1.656-.275l-.278.137a6.986,6.986,0,0,0-4.561,4.838l-5.668,20.735a.607.607,0,0,0,.552.827,1.043,1.043,0,0,0,.692-.137L107.6,201.121a7.6,7.6,0,0,0,2.212-6.22Z" transform="translate(-90.559 -127.695)"/>
    <path id="Path_21" data-name="Path 21" class="cls-1" d="M159.639,183.681H159.5l-4.975-.689c-.14,0-.14,0-.278-.137a.52.52,0,0,1-.137-.83c1.8-2.352,6.772-9.124,6.772-9.124a1.18,1.18,0,0,0,0-1.8,2.8,2.8,0,0,0-1.107-.552l-9.814-1.522a2.5,2.5,0,0,0-2.349.97l-5.253,7.187a2.389,2.389,0,0,0,.415,3.316c.137,0,.137.14,0,.278,0,0-.137.137-.137,0l-2.626-.415-3.871-.415a2.774,2.774,0,0,0-2.626,1.107L117.9,202.341a.522.522,0,0,1-.83.14l-14.926-9.124a2.014,2.014,0,0,0-2.764.693,2.256,2.256,0,0,0,.827,2.9l.415.278a.713.713,0,0,1,.278.552l-.415,3.041c0,.278-.278.415-.415.278h-.137l-2.212-1.245A3.655,3.655,0,0,0,92.6,201.1a3.3,3.3,0,0,0,.415,4.7,5.578,5.578,0,0,1,.552.415l11.2,6.913a10.167,10.167,0,0,0,12.025-.415c1.242-.967,2.764-2.074,5.113-.555a2.5,2.5,0,0,0,2.764,0l2.767-1.656a2.279,2.279,0,0,1,2.627,0l8.429,5.113c.278.14.83.14.97-.137l20.731-28.2C161.85,185.066,160.606,183.959,159.639,183.681Z" transform="translate(-88.004 -169.003)"/>
  </g>
</svg>